<mxfile host="Electron" modified="2024-10-13T14:06:47.348Z" agent="Mozilla/5.0 (Windows NT 10.0; Win64; x64) AppleWebKit/537.36 (KHTML, like Gecko) draw.io/24.6.4 Chrome/124.0.6367.207 Electron/30.0.6 Safari/537.36" etag="O6u6pIR_cuBq5u0U9mSG" version="24.6.4" type="device">
  <diagram name="第 1 页" id="-JM2KnO7A8YKPqvCUqVR">
    <mxGraphModel dx="1169" dy="674" grid="1" gridSize="10" guides="1" tooltips="1" connect="1" arrows="1" fold="1" page="1" pageScale="1" pageWidth="827" pageHeight="1169" math="0" shadow="0">
      <root>
        <mxCell id="0" />
        <mxCell id="1" parent="0" />
        <mxCell id="Bz-3BwG32OZe5eUalkXG-4" style="edgeStyle=orthogonalEdgeStyle;rounded=0;orthogonalLoop=1;jettySize=auto;html=1;exitX=0.5;exitY=0;exitDx=0;exitDy=0;entryX=1;entryY=0.5;entryDx=0;entryDy=0;" parent="1" source="Bz-3BwG32OZe5eUalkXG-1" target="Bz-3BwG32OZe5eUalkXG-2" edge="1">
          <mxGeometry relative="1" as="geometry" />
        </mxCell>
        <mxCell id="Bz-3BwG32OZe5eUalkXG-20" style="edgeStyle=orthogonalEdgeStyle;rounded=0;orthogonalLoop=1;jettySize=auto;html=1;exitX=0.5;exitY=0;exitDx=0;exitDy=0;entryX=0;entryY=0.5;entryDx=0;entryDy=0;" parent="1" source="Bz-3BwG32OZe5eUalkXG-1" target="Bz-3BwG32OZe5eUalkXG-18" edge="1">
          <mxGeometry relative="1" as="geometry" />
        </mxCell>
        <mxCell id="Bz-3BwG32OZe5eUalkXG-21" value="24V" style="edgeLabel;html=1;align=center;verticalAlign=middle;resizable=0;points=[];" parent="Bz-3BwG32OZe5eUalkXG-20" vertex="1" connectable="0">
          <mxGeometry x="-0.5034" y="1" relative="1" as="geometry">
            <mxPoint as="offset" />
          </mxGeometry>
        </mxCell>
        <mxCell id="Bz-3BwG32OZe5eUalkXG-31" style="edgeStyle=orthogonalEdgeStyle;rounded=0;orthogonalLoop=1;jettySize=auto;html=1;exitX=0.5;exitY=1;exitDx=0;exitDy=0;entryX=0;entryY=0.5;entryDx=0;entryDy=0;" parent="1" source="Bz-3BwG32OZe5eUalkXG-1" target="Bz-3BwG32OZe5eUalkXG-33" edge="1">
          <mxGeometry relative="1" as="geometry">
            <mxPoint x="415.1379310344828" y="540" as="targetPoint" />
          </mxGeometry>
        </mxCell>
        <mxCell id="Bz-3BwG32OZe5eUalkXG-38" style="edgeStyle=orthogonalEdgeStyle;rounded=0;orthogonalLoop=1;jettySize=auto;html=1;exitX=0.5;exitY=1;exitDx=0;exitDy=0;entryX=1;entryY=0.5;entryDx=0;entryDy=0;" parent="1" source="Bz-3BwG32OZe5eUalkXG-1" target="Bz-3BwG32OZe5eUalkXG-37" edge="1">
          <mxGeometry relative="1" as="geometry" />
        </mxCell>
        <mxCell id="713JQY8kJZmZza0YPeOL-3" style="edgeStyle=orthogonalEdgeStyle;rounded=0;orthogonalLoop=1;jettySize=auto;html=1;exitX=0.5;exitY=1;exitDx=0;exitDy=0;entryX=0.5;entryY=0;entryDx=0;entryDy=0;" edge="1" parent="1" source="Bz-3BwG32OZe5eUalkXG-1" target="713JQY8kJZmZza0YPeOL-1">
          <mxGeometry relative="1" as="geometry">
            <Array as="points">
              <mxPoint x="415" y="570" />
              <mxPoint x="487" y="570" />
              <mxPoint x="487" y="655" />
            </Array>
          </mxGeometry>
        </mxCell>
        <mxCell id="713JQY8kJZmZza0YPeOL-4" value="&amp;nbsp;24V" style="edgeLabel;html=1;align=center;verticalAlign=middle;resizable=0;points=[];" vertex="1" connectable="0" parent="713JQY8kJZmZza0YPeOL-3">
          <mxGeometry x="-0.7337" y="2" relative="1" as="geometry">
            <mxPoint x="-2" as="offset" />
          </mxGeometry>
        </mxCell>
        <mxCell id="Bz-3BwG32OZe5eUalkXG-1" value="DJl Smart Battery TB47D #1" style="rounded=1;whiteSpace=wrap;html=1;fillColor=#f8cecc;strokeColor=#b85450;" parent="1" vertex="1">
          <mxGeometry x="370" y="430" width="90" height="60" as="geometry" />
        </mxCell>
        <mxCell id="Bz-3BwG32OZe5eUalkXG-6" style="edgeStyle=orthogonalEdgeStyle;rounded=0;orthogonalLoop=1;jettySize=auto;html=1;exitX=0.5;exitY=0;exitDx=0;exitDy=0;entryX=0.5;entryY=1;entryDx=0;entryDy=0;" parent="1" source="Bz-3BwG32OZe5eUalkXG-2" target="Bz-3BwG32OZe5eUalkXG-5" edge="1">
          <mxGeometry relative="1" as="geometry" />
        </mxCell>
        <mxCell id="Bz-3BwG32OZe5eUalkXG-7" value="24V" style="edgeLabel;html=1;align=center;verticalAlign=middle;resizable=0;points=[];" parent="Bz-3BwG32OZe5eUalkXG-6" vertex="1" connectable="0">
          <mxGeometry x="-0.0821" y="1" relative="1" as="geometry">
            <mxPoint as="offset" />
          </mxGeometry>
        </mxCell>
        <mxCell id="Bz-3BwG32OZe5eUalkXG-13" style="edgeStyle=orthogonalEdgeStyle;rounded=0;orthogonalLoop=1;jettySize=auto;html=1;exitX=0;exitY=0.5;exitDx=0;exitDy=0;entryX=1;entryY=0.5;entryDx=0;entryDy=0;" parent="1" source="Bz-3BwG32OZe5eUalkXG-2" target="Bz-3BwG32OZe5eUalkXG-9" edge="1">
          <mxGeometry relative="1" as="geometry">
            <Array as="points">
              <mxPoint x="220" y="370" />
              <mxPoint x="220" y="190" />
            </Array>
          </mxGeometry>
        </mxCell>
        <mxCell id="Bz-3BwG32OZe5eUalkXG-14" style="edgeStyle=orthogonalEdgeStyle;rounded=0;orthogonalLoop=1;jettySize=auto;html=1;exitX=0;exitY=0.5;exitDx=0;exitDy=0;entryX=1;entryY=0.5;entryDx=0;entryDy=0;" parent="1" source="Bz-3BwG32OZe5eUalkXG-2" target="Bz-3BwG32OZe5eUalkXG-10" edge="1">
          <mxGeometry relative="1" as="geometry">
            <Array as="points">
              <mxPoint x="220" y="370" />
              <mxPoint x="220" y="290" />
            </Array>
          </mxGeometry>
        </mxCell>
        <mxCell id="Bz-3BwG32OZe5eUalkXG-15" style="edgeStyle=orthogonalEdgeStyle;rounded=0;orthogonalLoop=1;jettySize=auto;html=1;exitX=0;exitY=0.5;exitDx=0;exitDy=0;entryX=1;entryY=0.5;entryDx=0;entryDy=0;" parent="1" source="Bz-3BwG32OZe5eUalkXG-2" target="Bz-3BwG32OZe5eUalkXG-11" edge="1">
          <mxGeometry relative="1" as="geometry">
            <Array as="points">
              <mxPoint x="220" y="370" />
              <mxPoint x="220" y="390" />
            </Array>
          </mxGeometry>
        </mxCell>
        <mxCell id="Bz-3BwG32OZe5eUalkXG-16" style="edgeStyle=orthogonalEdgeStyle;rounded=0;orthogonalLoop=1;jettySize=auto;html=1;exitX=0;exitY=0.5;exitDx=0;exitDy=0;entryX=1;entryY=0.5;entryDx=0;entryDy=0;" parent="1" source="Bz-3BwG32OZe5eUalkXG-2" target="Bz-3BwG32OZe5eUalkXG-12" edge="1">
          <mxGeometry relative="1" as="geometry">
            <Array as="points">
              <mxPoint x="220" y="370" />
              <mxPoint x="220" y="490" />
            </Array>
          </mxGeometry>
        </mxCell>
        <mxCell id="Bz-3BwG32OZe5eUalkXG-40" value="&amp;nbsp;24V&amp;nbsp;" style="edgeLabel;html=1;align=center;verticalAlign=middle;resizable=0;points=[];" parent="Bz-3BwG32OZe5eUalkXG-16" vertex="1" connectable="0">
          <mxGeometry x="-0.8408" y="2" relative="1" as="geometry">
            <mxPoint x="-13" y="-2" as="offset" />
          </mxGeometry>
        </mxCell>
        <mxCell id="Bz-3BwG32OZe5eUalkXG-2" value="RoboMaster ESC CenterBoard #1" style="rounded=1;whiteSpace=wrap;html=1;fillColor=#ffe6cc;strokeColor=#d79b00;" parent="1" vertex="1">
          <mxGeometry x="270" y="340" width="100" height="60" as="geometry" />
        </mxCell>
        <mxCell id="Bz-3BwG32OZe5eUalkXG-5" value="RoboMaster Development BoardType-C #1" style="rounded=1;whiteSpace=wrap;html=1;fillColor=#d5e8d4;strokeColor=#82b366;" parent="1" vertex="1">
          <mxGeometry x="270" y="210" width="100" height="60" as="geometry" />
        </mxCell>
        <mxCell id="Bz-3BwG32OZe5eUalkXG-9" value="RoboMaster M3508Brushless Geared Motorwith C620 dc motorspeed controller #1" style="rounded=1;whiteSpace=wrap;html=1;fillColor=#dae8fc;strokeColor=#6c8ebf;" parent="1" vertex="1">
          <mxGeometry x="40" y="155" width="140" height="70" as="geometry" />
        </mxCell>
        <mxCell id="Bz-3BwG32OZe5eUalkXG-10" value="RoboMaster M3508Brushless Geared Motorwith C620 dc motorspeed controller #2" style="rounded=1;whiteSpace=wrap;html=1;fillColor=#dae8fc;strokeColor=#6c8ebf;" parent="1" vertex="1">
          <mxGeometry x="40" y="255" width="140" height="70" as="geometry" />
        </mxCell>
        <mxCell id="Bz-3BwG32OZe5eUalkXG-11" value="RoboMaster M3508Brushless Geared Motorwith C620 dc motorspeed controller #3" style="rounded=1;whiteSpace=wrap;html=1;fillColor=#dae8fc;strokeColor=#6c8ebf;" parent="1" vertex="1">
          <mxGeometry x="40" y="355" width="140" height="70" as="geometry" />
        </mxCell>
        <mxCell id="Bz-3BwG32OZe5eUalkXG-12" value="RoboMaster M3508Brushless Geared Motorwith C620 dc motorspeed controller #4" style="rounded=1;whiteSpace=wrap;html=1;fillColor=#dae8fc;strokeColor=#6c8ebf;" parent="1" vertex="1">
          <mxGeometry x="40" y="455" width="140" height="70" as="geometry" />
        </mxCell>
        <mxCell id="Bz-3BwG32OZe5eUalkXG-23" style="edgeStyle=orthogonalEdgeStyle;rounded=0;orthogonalLoop=1;jettySize=auto;html=1;exitX=0.5;exitY=0;exitDx=0;exitDy=0;entryX=0.5;entryY=1;entryDx=0;entryDy=0;" parent="1" source="Bz-3BwG32OZe5eUalkXG-18" target="Bz-3BwG32OZe5eUalkXG-22" edge="1">
          <mxGeometry relative="1" as="geometry" />
        </mxCell>
        <mxCell id="Bz-3BwG32OZe5eUalkXG-24" value="24V" style="edgeLabel;html=1;align=center;verticalAlign=middle;resizable=0;points=[];" parent="Bz-3BwG32OZe5eUalkXG-23" vertex="1" connectable="0">
          <mxGeometry x="0.0502" y="-1" relative="1" as="geometry">
            <mxPoint as="offset" />
          </mxGeometry>
        </mxCell>
        <mxCell id="Bz-3BwG32OZe5eUalkXG-18" value="RoboMaster ESC CenterBoard #3" style="rounded=1;whiteSpace=wrap;html=1;fillColor=#ffe6cc;strokeColor=#d79b00;" parent="1" vertex="1">
          <mxGeometry x="460" y="340" width="100" height="60" as="geometry" />
        </mxCell>
        <mxCell id="Bz-3BwG32OZe5eUalkXG-49" style="edgeStyle=orthogonalEdgeStyle;rounded=0;orthogonalLoop=1;jettySize=auto;html=1;exitX=1;exitY=0.5;exitDx=0;exitDy=0;entryX=0;entryY=0.5;entryDx=0;entryDy=0;" parent="1" source="Bz-3BwG32OZe5eUalkXG-22" target="Bz-3BwG32OZe5eUalkXG-45" edge="1">
          <mxGeometry relative="1" as="geometry" />
        </mxCell>
        <mxCell id="Bz-3BwG32OZe5eUalkXG-50" style="edgeStyle=orthogonalEdgeStyle;rounded=0;orthogonalLoop=1;jettySize=auto;html=1;exitX=1;exitY=0.5;exitDx=0;exitDy=0;entryX=0;entryY=0.5;entryDx=0;entryDy=0;" parent="1" source="Bz-3BwG32OZe5eUalkXG-22" target="Bz-3BwG32OZe5eUalkXG-46" edge="1">
          <mxGeometry relative="1" as="geometry" />
        </mxCell>
        <mxCell id="Bz-3BwG32OZe5eUalkXG-51" style="edgeStyle=orthogonalEdgeStyle;rounded=0;orthogonalLoop=1;jettySize=auto;html=1;exitX=1;exitY=0.5;exitDx=0;exitDy=0;entryX=0;entryY=0.5;entryDx=0;entryDy=0;" parent="1" source="Bz-3BwG32OZe5eUalkXG-22" target="Bz-3BwG32OZe5eUalkXG-47" edge="1">
          <mxGeometry relative="1" as="geometry" />
        </mxCell>
        <mxCell id="Bz-3BwG32OZe5eUalkXG-52" style="edgeStyle=orthogonalEdgeStyle;rounded=0;orthogonalLoop=1;jettySize=auto;html=1;exitX=1;exitY=0.5;exitDx=0;exitDy=0;entryX=0;entryY=0.5;entryDx=0;entryDy=0;" parent="1" source="Bz-3BwG32OZe5eUalkXG-22" target="Bz-3BwG32OZe5eUalkXG-48" edge="1">
          <mxGeometry relative="1" as="geometry" />
        </mxCell>
        <mxCell id="Bz-3BwG32OZe5eUalkXG-53" value="&amp;nbsp;24V&amp;nbsp;" style="edgeLabel;html=1;align=center;verticalAlign=middle;resizable=0;points=[];" parent="Bz-3BwG32OZe5eUalkXG-52" vertex="1" connectable="0">
          <mxGeometry x="-0.8919" y="-1" relative="1" as="geometry">
            <mxPoint as="offset" />
          </mxGeometry>
        </mxCell>
        <mxCell id="Bz-3BwG32OZe5eUalkXG-22" value="RoboMaster Development BoardType-C #1" style="rounded=1;whiteSpace=wrap;html=1;fillColor=#d5e8d4;strokeColor=#82b366;" parent="1" vertex="1">
          <mxGeometry x="460" y="210" width="100" height="60" as="geometry" />
        </mxCell>
        <mxCell id="Bz-3BwG32OZe5eUalkXG-25" value="RoboMaster M2006Brushless Geared Motorwith C610 dc motorspeed controller #1" style="rounded=1;whiteSpace=wrap;html=1;fillColor=#dae8fc;strokeColor=#6c8ebf;" parent="1" vertex="1">
          <mxGeometry x="40" y="655" width="140" height="70" as="geometry" />
        </mxCell>
        <mxCell id="Bz-3BwG32OZe5eUalkXG-35" style="edgeStyle=orthogonalEdgeStyle;rounded=0;orthogonalLoop=1;jettySize=auto;html=1;exitX=1;exitY=0.5;exitDx=0;exitDy=0;entryX=0.5;entryY=0;entryDx=0;entryDy=0;" parent="1" source="Bz-3BwG32OZe5eUalkXG-33" target="Bz-3BwG32OZe5eUalkXG-34" edge="1">
          <mxGeometry relative="1" as="geometry" />
        </mxCell>
        <mxCell id="Bz-3BwG32OZe5eUalkXG-36" value="19V&amp;nbsp;" style="edgeLabel;html=1;align=center;verticalAlign=middle;resizable=0;points=[];" parent="Bz-3BwG32OZe5eUalkXG-35" vertex="1" connectable="0">
          <mxGeometry x="-0.1041" relative="1" as="geometry">
            <mxPoint y="28" as="offset" />
          </mxGeometry>
        </mxCell>
        <mxCell id="Bz-3BwG32OZe5eUalkXG-33" value="24V to 19Vmodule" style="rounded=1;whiteSpace=wrap;html=1;fillColor=#60a917;strokeColor=#2D7600;fontColor=#ffffff;" parent="1" vertex="1">
          <mxGeometry x="580" y="545" width="75" height="50" as="geometry" />
        </mxCell>
        <mxCell id="Bz-3BwG32OZe5eUalkXG-34" value="Intel NuC" style="rounded=1;whiteSpace=wrap;html=1;fillColor=#d5e8d4;strokeColor=#82b366;" parent="1" vertex="1">
          <mxGeometry x="670" y="662.5" width="75" height="50" as="geometry" />
        </mxCell>
        <mxCell id="Bz-3BwG32OZe5eUalkXG-42" style="edgeStyle=orthogonalEdgeStyle;rounded=0;orthogonalLoop=1;jettySize=auto;html=1;exitX=0.5;exitY=1;exitDx=0;exitDy=0;entryX=0.5;entryY=0;entryDx=0;entryDy=0;" parent="1" source="Bz-3BwG32OZe5eUalkXG-37" target="Bz-3BwG32OZe5eUalkXG-25" edge="1">
          <mxGeometry relative="1" as="geometry">
            <Array as="points">
              <mxPoint x="210" y="635" />
              <mxPoint x="110" y="635" />
            </Array>
          </mxGeometry>
        </mxCell>
        <mxCell id="Bz-3BwG32OZe5eUalkXG-43" style="edgeStyle=orthogonalEdgeStyle;rounded=0;orthogonalLoop=1;jettySize=auto;html=1;exitX=0.5;exitY=1;exitDx=0;exitDy=0;entryX=0.5;entryY=0;entryDx=0;entryDy=0;" parent="1" source="Bz-3BwG32OZe5eUalkXG-37" target="Bz-3BwG32OZe5eUalkXG-41" edge="1">
          <mxGeometry relative="1" as="geometry">
            <Array as="points">
              <mxPoint x="210" y="635" />
              <mxPoint x="313" y="635" />
            </Array>
          </mxGeometry>
        </mxCell>
        <mxCell id="Bz-3BwG32OZe5eUalkXG-44" value="24V&amp;nbsp;" style="edgeLabel;html=1;align=center;verticalAlign=middle;resizable=0;points=[];" parent="Bz-3BwG32OZe5eUalkXG-43" vertex="1" connectable="0">
          <mxGeometry x="-0.7869" relative="1" as="geometry">
            <mxPoint as="offset" />
          </mxGeometry>
        </mxCell>
        <mxCell id="Bz-3BwG32OZe5eUalkXG-37" value="RoboMaster ESC CenterBoard #2" style="rounded=1;whiteSpace=wrap;html=1;fillColor=#ffe6cc;strokeColor=#d79b00;" parent="1" vertex="1">
          <mxGeometry x="160" y="540" width="100" height="60" as="geometry" />
        </mxCell>
        <mxCell id="Bz-3BwG32OZe5eUalkXG-41" value="RoboMaster GM6020 Brushless dc Motor #1" style="rounded=1;whiteSpace=wrap;html=1;fillColor=#dae8fc;strokeColor=#6c8ebf;" parent="1" vertex="1">
          <mxGeometry x="243" y="655" width="140" height="70" as="geometry" />
        </mxCell>
        <mxCell id="Bz-3BwG32OZe5eUalkXG-45" value="RoboMaster M3508Brushless Geared Motorwith C620 dc motorspeed controller #5" style="rounded=1;whiteSpace=wrap;html=1;fillColor=#dae8fc;strokeColor=#6c8ebf;" parent="1" vertex="1">
          <mxGeometry x="640" y="155" width="140" height="70" as="geometry" />
        </mxCell>
        <mxCell id="Bz-3BwG32OZe5eUalkXG-46" value="RoboMaster M3508Brushless Geared Motorwith C620 dc motorspeed controller #6" style="rounded=1;whiteSpace=wrap;html=1;fillColor=#dae8fc;strokeColor=#6c8ebf;" parent="1" vertex="1">
          <mxGeometry x="640" y="255" width="140" height="70" as="geometry" />
        </mxCell>
        <mxCell id="Bz-3BwG32OZe5eUalkXG-47" value="RoboMaster GM6020 Brushless dc Motor #2" style="rounded=1;whiteSpace=wrap;html=1;fillColor=#dae8fc;strokeColor=#6c8ebf;" parent="1" vertex="1">
          <mxGeometry x="640" y="355" width="140" height="70" as="geometry" />
        </mxCell>
        <mxCell id="Bz-3BwG32OZe5eUalkXG-48" value="RoboMaster M2006Brushless Geared Motorwith C610 dc motorspeed controller #2" style="rounded=1;whiteSpace=wrap;html=1;fillColor=#dae8fc;strokeColor=#6c8ebf;" parent="1" vertex="1">
          <mxGeometry x="640" y="455" width="140" height="70" as="geometry" />
        </mxCell>
        <mxCell id="713JQY8kJZmZza0YPeOL-1" value="MID 360&amp;nbsp;&lt;div&gt;3D LiDAR&lt;/div&gt;" style="rounded=1;whiteSpace=wrap;html=1;fillColor=#60a917;strokeColor=#2D7600;fontColor=#ffffff;" vertex="1" parent="1">
          <mxGeometry x="440" y="655" width="95" height="65" as="geometry" />
        </mxCell>
      </root>
    </mxGraphModel>
  </diagram>
</mxfile>
